<?xml version="1.0" encoding="UTF-8" standalone="no"?>
<!-- Generator: Gravit.io -->
<svg xmlns="http://www.w3.org/2000/svg" xmlns:xlink="http://www.w3.org/1999/xlink" style="isolation:isolate" viewBox="866.191 416 77.407 91" width="77.407pt" height="91pt"><defs><clipPath id="_clipPath_eBQ83SxHRrJ3lRSZR3VQ93Ui8XsZ51T3"><rect x="866.191" y="416" width="77.407" height="91"/></clipPath></defs><g clip-path="url(#_clipPath_eBQ83SxHRrJ3lRSZR3VQ93Ui8XsZ51T3)"><g style="isolation:isolate"><rect x="866.191" y="416" width="73.194" height="7.891" transform="matrix(1,0,0,1,0,0)" fill="rgb(118,118,118)"/><rect x="931.654" y="416" width="7.731" height="32.074" transform="matrix(1,0,0,1,0,0)" fill="rgb(118,118,118)"/><rect x="866.191" y="416" width="8.224" height="32.074" transform="matrix(1,0,0,1,0,0)" fill="rgb(118,118,118)"/><rect x="882.721" y="432.53" width="40.544" height="7.977" transform="matrix(1,0,0,1,0,0)" fill="rgb(255,90,95)"/><rect x="883.847" y="446.19" width="40.544" height="7.977" transform="matrix(0.978,-0.207,0.207,0.978,-73.509,196.534)" fill="rgb(255,90,95)"/><rect x="888.215" y="460.565" width="40.544" height="7.977" transform="matrix(0.909,-0.416,0.416,0.909,-110.901,419.757)" fill="rgb(255,90,95)"/><rect x="897.232" y="473.759" width="40.544" height="7.977" transform="matrix(0.761,-0.649,0.649,0.761,-90.662,709.39)" fill="rgb(255,90,95)"/><rect x="908.31" y="484.189" width="40.544" height="7.977" transform="matrix(0.58,-0.814,0.814,0.58,-7.938,960.948)" fill="rgb(255,90,95)"/></g></g></svg>